<?xml version="1.0" encoding="UTF-8"?>
<svg xmlns="http://www.w3.org/2000/svg" xmlns:xlink="http://www.w3.org/1999/xlink" width="40px" height="64px" viewBox="0 0 40 64" version="1.1">
<g id="surface1">
<path style=" stroke:none;fill-rule:nonzero;fill:#fff;fill-opacity:1;" d="M 0 6.898438 L 0 53.25 C 0 54.773438 1.238281 56 2.75 56 C 3.539062 56 4.300781 55.664062 4.824219 55.0625 L 15.148438 43.25 L 22.414062 57.789062 C 23.398438 59.761719 25.800781 60.5625 27.773438 59.574219 C 29.75 58.585938 30.550781 56.1875 29.5625 54.210938 L 22.476562 40 L 37.238281 40 C 38.761719 40 40 38.761719 40 37.238281 C 40 36.449219 39.664062 35.699219 39.074219 35.175781 L 4.824219 4.738281 C 4.289062 4.261719 3.613281 4 2.898438 4 C 1.300781 4 0 5.300781 0 6.898438 Z M 0 6.898438 "/>
</g>
</svg>
