<?xml version="1.0" encoding="UTF-8"?>
<svg xmlns="http://www.w3.org/2000/svg" xmlns:xlink="http://www.w3.org/1999/xlink" width="50px" height="40px" viewBox="0 0 50 40" version="1.1">
<g id="surface1">
<path style=" stroke:none;fill-rule:nonzero;fill:#413559;fill-opacity:1;" d="M 29.765625 8.976562 L 14.539062 3.265625 C 13.234375 2.78125 11.789062 2.851562 10.546875 3.476562 L 6.960938 5.265625 C 6.09375 5.703125 6.03125 6.914062 6.84375 7.4375 L 18.320312 14.820312 L 10.625 18.75 L 6.078125 16.726562 C 5.398438 16.421875 4.609375 16.4375 3.945312 16.773438 L 1.429688 18.03125 C 0.703125 18.398438 0.507812 19.34375 1.039062 19.960938 L 6.75 26.625 C 7.226562 27.179688 7.921875 27.5 8.648438 27.5 L 19.40625 27.5 C 19.796875 27.5 20.179688 27.40625 20.523438 27.234375 L 41.84375 16.578125 C 45.476562 14.757812 48.289062 11.632812 49.71875 7.828125 C 50.460938 5.859375 49 3.75 46.890625 3.75 L 42.40625 3.75 C 40.828125 3.75 39.265625 4.125 37.859375 4.84375 Z M 0 37.5 C 0 38.882812 1.117188 40 2.5 40 L 47.5 40 C 48.882812 40 50 38.882812 50 37.5 C 50 36.117188 48.882812 35 47.5 35 L 2.5 35 C 1.117188 35 0 36.117188 0 37.5 Z M 0 37.5 "/>
</g>
</svg>
