<?xml version="1.0" encoding="UTF-8"?>
<svg xmlns="http://www.w3.org/2000/svg" xmlns:xlink="http://www.w3.org/1999/xlink" width="40px" height="53px" viewBox="0 0 40 53" version="1.1">
<g id="surface1">
<path style=" stroke:none;fill-rule:nonzero;fill:#fff;fill-opacity:1;" d="M 18.105469 0.570312 C 19.25 -0.1875 20.75 -0.1875 21.894531 0.570312 L 23.75 1.78125 C 24.375 2.183594 25.105469 2.382812 25.84375 2.339844 L 28.0625 2.203125 C 29.4375 2.121094 30.730469 2.867188 31.34375 4.089844 L 32.34375 6.066406 C 32.675781 6.726562 33.21875 7.257812 33.875 7.585938 L 35.886719 8.59375 C 37.113281 9.203125 37.863281 10.484375 37.78125 11.851562 L 37.644531 14.058594 C 37.605469 14.792969 37.800781 15.527344 38.207031 16.136719 L 39.4375 17.980469 C 40.199219 19.121094 40.199219 20.609375 39.4375 21.75 L 38.207031 23.601562 C 37.800781 24.222656 37.605469 24.945312 37.644531 25.683594 L 37.78125 27.886719 C 37.863281 29.253906 37.113281 30.539062 35.886719 31.148438 L 33.894531 32.140625 C 33.230469 32.472656 32.699219 33.011719 32.363281 33.664062 L 31.355469 35.660156 C 30.738281 36.882812 29.449219 37.628906 28.074219 37.546875 L 25.855469 37.410156 C 25.113281 37.367188 24.375 37.566406 23.761719 37.96875 L 21.90625 39.191406 C 20.761719 39.945312 19.261719 39.945312 18.113281 39.191406 L 16.25 37.96875 C 15.625 37.566406 14.894531 37.367188 14.15625 37.410156 L 11.9375 37.546875 C 10.5625 37.628906 9.269531 36.882812 8.65625 35.660156 L 7.65625 33.683594 C 7.324219 33.023438 6.78125 32.492188 6.125 32.164062 L 4.113281 31.15625 C 2.886719 30.546875 2.136719 29.265625 2.21875 27.898438 L 2.355469 25.691406 C 2.394531 24.957031 2.199219 24.222656 1.792969 23.613281 L 0.574219 21.757812 C -0.1875 20.621094 -0.1875 19.128906 0.574219 17.992188 L 1.792969 16.148438 C 2.199219 15.527344 2.394531 14.804688 2.355469 14.066406 L 2.21875 11.863281 C 2.136719 10.496094 2.886719 9.210938 4.113281 8.601562 L 6.105469 7.609375 C 6.769531 7.265625 7.3125 6.726562 7.644531 6.066406 L 8.644531 4.089844 C 9.261719 2.867188 10.550781 2.121094 11.925781 2.203125 L 14.144531 2.339844 C 14.886719 2.382812 15.625 2.183594 16.238281 1.78125 Z M 28.332031 19.875 C 28.332031 15.300781 24.601562 11.59375 20 11.59375 C 15.398438 11.59375 11.667969 15.300781 11.667969 19.875 C 11.667969 24.449219 15.398438 28.15625 20 28.15625 C 24.601562 28.15625 28.332031 24.449219 28.332031 19.875 Z M 0.136719 45.734375 L 4.625 35.121094 C 4.644531 35.132812 4.65625 35.144531 4.667969 35.164062 L 5.667969 37.140625 C 6.886719 39.542969 9.417969 41.003906 12.125 40.847656 L 14.34375 40.710938 C 14.363281 40.710938 14.394531 40.710938 14.417969 40.734375 L 16.269531 41.953125 C 16.800781 42.296875 17.363281 42.566406 17.949219 42.75 L 14.03125 51.996094 C 13.792969 52.566406 13.261719 52.949219 12.644531 53 C 12.03125 53.050781 11.4375 52.773438 11.105469 52.253906 L 7.75 47.152344 L 1.90625 48.011719 C 1.3125 48.09375 0.71875 47.855469 0.34375 47.390625 C -0.03125 46.921875 -0.105469 46.28125 0.125 45.734375 Z M 25.96875 51.984375 L 22.050781 42.75 C 22.636719 42.566406 23.199219 42.308594 23.730469 41.953125 L 25.582031 40.734375 C 25.605469 40.722656 25.625 40.710938 25.65625 40.710938 L 27.875 40.847656 C 30.582031 41.003906 33.113281 39.542969 34.332031 37.140625 L 35.332031 35.164062 C 35.34375 35.144531 35.355469 35.132812 35.375 35.121094 L 39.875 45.734375 C 40.105469 46.28125 40.019531 46.914062 39.65625 47.390625 C 39.292969 47.867188 38.6875 48.105469 38.09375 48.011719 L 32.25 47.152344 L 28.894531 52.246094 C 28.5625 52.761719 27.96875 53.042969 27.355469 52.988281 C 26.738281 52.9375 26.207031 52.542969 25.96875 51.984375 Z M 25.96875 51.984375 "/>
</g>
</svg>
