<?xml version="1.0" encoding="UTF-8"?>
<svg xmlns="http://www.w3.org/2000/svg" xmlns:xlink="http://www.w3.org/1999/xlink" width="39px" height="45px" viewBox="0 0 39 44" version="1.1">
<g id="surface1">
<path style=" stroke:none;fill-rule:nonzero;fill:#D9DCFD;fill-opacity:1;" d="M 39 25.4375 C 39 31.136719 34.324219 35.75 28.554688 35.75 L 27.855469 35.75 C 26.316406 35.75 25.070312 34.519531 25.070312 33 C 25.070312 31.480469 26.316406 30.25 27.855469 30.25 L 28.554688 30.25 C 31.242188 30.25 33.429688 28.09375 33.429688 25.4375 L 33.429688 24.75 L 27.855469 24.75 C 24.785156 24.75 22.285156 22.285156 22.285156 19.25 L 22.285156 13.75 C 22.285156 10.714844 24.785156 8.25 27.855469 8.25 L 33.429688 8.25 C 36.5 8.25 39 10.714844 39 13.75 Z M 16.714844 25.4375 C 16.714844 31.136719 12.039062 35.75 6.269531 35.75 L 5.570312 35.75 C 4.03125 35.75 2.785156 34.519531 2.785156 33 C 2.785156 31.480469 4.03125 30.25 5.570312 30.25 L 6.269531 30.25 C 8.957031 30.25 11.144531 28.09375 11.144531 25.4375 L 11.144531 24.75 L 5.570312 24.75 C 2.5 24.75 0 22.285156 0 19.25 L 0 13.75 C 0 10.714844 2.5 8.25 5.570312 8.25 L 11.144531 8.25 C 14.214844 8.25 16.714844 10.714844 16.714844 13.75 Z M 16.714844 25.4375 "/>
</g>
</svg>
